<svg width="14" height="14" viewBox="0 0 14 14" fill="none" xmlns="http://www.w3.org/2000/svg">
<path d="M7.45956 0.243225C5.73923 0.243225 4.08937 0.926621 2.87292 2.14307C1.65647 3.35953 0.973072 5.00939 0.973072 6.72971C0.973072 8.45004 1.65647 10.0999 2.87292 11.3163C4.08937 12.5328 5.73923 13.2162 7.45956 13.2162C9.17988 13.2162 10.8297 12.5328 12.0462 11.3163C13.2626 10.0999 13.946 8.45004 13.946 6.72971C13.946 5.00939 13.2626 3.35953 12.0462 2.14307C10.8297 0.926621 9.17988 0.243225 7.45956 0.243225V0.243225ZM10.2974 6.32431C10.4049 6.32431 10.508 6.36702 10.5841 6.44305C10.6601 6.51907 10.7028 6.62219 10.7028 6.72971C10.7028 6.83723 10.6601 6.94035 10.5841 7.01638C10.508 7.0924 10.4049 7.13512 10.2974 7.13512H5.60037L7.34118 8.87512C7.37887 8.91281 7.40877 8.95756 7.42917 9.00681C7.44957 9.05605 7.46007 9.10884 7.46007 9.16214C7.46007 9.21545 7.44957 9.26823 7.42917 9.31748C7.40877 9.36673 7.37887 9.41148 7.34118 9.44917C7.30349 9.48686 7.25874 9.51676 7.20949 9.53716C7.16024 9.55756 7.10746 9.56806 7.05415 9.56806C7.00085 9.56806 6.94806 9.55756 6.89882 9.53716C6.84957 9.51676 6.80482 9.48686 6.76713 9.44917L4.33469 7.01674C4.29694 6.97908 4.26699 6.93434 4.24655 6.88509C4.22611 6.83584 4.21559 6.78304 4.21559 6.72971C4.21559 6.67639 4.22611 6.62359 4.24655 6.57433C4.26699 6.52508 4.29694 6.48034 4.33469 6.44268L6.76713 4.01025C6.80482 3.97256 6.84957 3.94266 6.89882 3.92226C6.94806 3.90186 7.00085 3.89136 7.05415 3.89136C7.10746 3.89136 7.16024 3.90186 7.20949 3.92226C7.25874 3.94266 7.30349 3.97256 7.34118 4.01025C7.37887 4.04795 7.40877 4.09269 7.42917 4.14194C7.44957 4.19119 7.46007 4.24397 7.46007 4.29728C7.46007 4.35058 7.44957 4.40337 7.42917 4.45262C7.40877 4.50187 7.37887 4.54661 7.34118 4.58431L5.60037 6.32431H10.2974Z" fill="#878B90"/>
</svg>
