<svg width="14" height="14" viewBox="0 0 14 14" fill="none" xmlns="http://www.w3.org/2000/svg">
<path d="M7.35148 0.243225C9.0718 0.243225 10.7217 0.926621 11.9381 2.14307C13.1546 3.35953 13.838 5.00939 13.838 6.72971C13.838 8.45004 13.1546 10.0999 11.9381 11.3163C10.7217 12.5328 9.0718 13.2162 7.35148 13.2162C5.63115 13.2162 3.98129 12.5328 2.76484 11.3163C1.54839 10.0999 0.86499 8.45004 0.86499 6.72971C0.86499 5.00939 1.54839 3.35953 2.76484 2.14307C3.98129 0.926621 5.63115 0.243225 7.35148 0.243225V0.243225ZM4.51364 6.32431C4.40612 6.32431 4.303 6.36702 4.22697 6.44305C4.15095 6.51907 4.10823 6.62219 4.10823 6.72971C4.10823 6.83723 4.15095 6.94035 4.22697 7.01638C4.303 7.0924 4.40612 7.13512 4.51364 7.13512H9.21067L7.46985 8.87512C7.43216 8.91281 7.40226 8.95756 7.38186 9.00681C7.36146 9.05605 7.35096 9.10884 7.35096 9.16214C7.35096 9.21545 7.36146 9.26823 7.38186 9.31748C7.40226 9.36673 7.43216 9.41148 7.46985 9.44917C7.50755 9.48686 7.5523 9.51676 7.60154 9.53716C7.65079 9.55756 7.70358 9.56806 7.75688 9.56806C7.81019 9.56806 7.86297 9.55756 7.91222 9.53716C7.96147 9.51676 8.00622 9.48686 8.04391 9.44917L10.4763 7.01674C10.5141 6.97908 10.544 6.93434 10.5645 6.88509C10.5849 6.83584 10.5954 6.78304 10.5954 6.72971C10.5954 6.67639 10.5849 6.62359 10.5645 6.57433C10.544 6.52508 10.5141 6.48034 10.4763 6.44268L8.04391 4.01025C8.00622 3.97256 7.96147 3.94266 7.91222 3.92226C7.86297 3.90186 7.81019 3.89136 7.75688 3.89136C7.70358 3.89136 7.65079 3.90186 7.60154 3.92226C7.5523 3.94266 7.50755 3.97256 7.46985 4.01025C7.43216 4.04795 7.40226 4.09269 7.38186 4.14194C7.36146 4.19119 7.35096 4.24397 7.35096 4.29728C7.35096 4.35058 7.36146 4.40337 7.38186 4.45262C7.40226 4.50187 7.43216 4.54661 7.46985 4.58431L9.21067 6.32431H4.51364Z" fill="#878B90"/>
</svg>
