<svg width="44" height="44" viewBox="0 0 44 44" fill="none" xmlns="http://www.w3.org/2000/svg">
<path d="M30.8 29.92H11.44C11.176 29.92 10.912 29.744 10.736 29.568C10.56 29.392 10.56 29.04 10.648 28.776L12.32 24.552L10.648 8.80004H5.28V7.04004H11.44C11.88 7.04004 12.232 7.39204 12.32 7.83204L14.08 24.552C14.08 24.728 14.08 24.816 13.992 24.992L12.76 28.16H31.68L30.8 29.92Z" fill="#249BB6"/>
<path d="M13.376 25.5201L13.024 23.7601L33.44 19.5361V12.3201H12.32V10.5601H34.32C34.848 10.5601 35.2 10.9121 35.2 11.4401V20.2401C35.2 20.6801 34.936 21.0321 34.496 21.1201L13.376 25.5201ZM31.68 35.2001C29.744 35.2001 28.16 33.6161 28.16 31.6801C28.16 29.7441 29.744 28.1601 31.68 28.1601C33.616 28.1601 35.2 29.7441 35.2 31.6801C35.2 33.6161 33.616 35.2001 31.68 35.2001ZM31.68 29.9201C30.712 29.9201 29.92 30.7121 29.92 31.6801C29.92 32.6481 30.712 33.4401 31.68 33.4401C32.648 33.4401 33.44 32.6481 33.44 31.6801C33.44 30.7121 32.648 29.9201 31.68 29.9201ZM10.56 35.2001C8.62399 35.2001 7.03999 33.6161 7.03999 31.6801C7.03999 29.7441 8.62399 28.1601 10.56 28.1601C12.496 28.1601 14.08 29.7441 14.08 31.6801C14.08 33.6161 12.496 35.2001 10.56 35.2001ZM10.56 29.9201C9.59199 29.9201 8.79999 30.7121 8.79999 31.6801C8.79999 32.6481 9.59199 33.4401 10.56 33.4401C11.528 33.4401 12.32 32.6481 12.32 31.6801C12.32 30.7121 11.528 29.9201 10.56 29.9201Z" fill="#249BB6"/>
</svg>
