<svg width="25" height="25" viewBox="0 0 25 25" fill="none" xmlns="http://www.w3.org/2000/svg">
<path d="M4.22481 14.0111L4.93478 15.4098C4.44829 15.8886 4.17921 16.4101 4.17921 16.9391C4.17921 18.8942 7.8689 20.7398 12.5407 20.7398C17.2125 20.7398 20.9022 18.8942 20.9022 16.9391C20.9022 16.4101 20.6316 15.8902 20.1466 15.4113L20.8703 14.0233C21.8508 14.8442 22.4224 15.8385 22.4224 16.9391C22.4224 20.0207 17.9437 22.2601 12.5407 22.2601C7.13765 22.2601 2.65894 20.0207 2.65894 16.9391C2.65894 15.8324 3.23664 14.8351 4.22481 14.0111Z" fill="#E5E5E5"/>
<path d="M4.22481 9.45032L4.93478 10.849C4.44829 11.3294 4.17921 11.8508 4.17921 12.3784C4.17921 14.3334 7.8689 16.179 12.5407 16.179C17.2125 16.179 20.9022 14.3334 20.9022 12.3784C20.9022 11.8493 20.6316 11.3294 20.1466 10.8505L20.8703 9.46248C21.8508 10.2834 22.4224 11.2777 22.4224 12.3784C22.4224 15.4599 17.9437 17.6993 12.5407 17.6993C7.13765 17.6993 2.65894 15.4599 2.65894 12.3784C2.65894 11.2716 3.23664 10.2743 4.22481 9.45032Z" fill="#E5E5E5"/>
<path d="M12.5407 13.1385C7.13765 13.1385 2.65894 10.8992 2.65894 7.81759C2.65894 4.736 7.13765 2.49664 12.5407 2.49664C17.9437 2.49664 22.4224 4.736 22.4224 7.81759C22.4224 10.8992 17.9437 13.1385 12.5407 13.1385ZM12.5407 11.6183C17.2125 11.6183 20.9022 9.77266 20.9022 7.81759C20.9022 5.86252 17.2125 4.01691 12.5407 4.01691C7.8689 4.01691 4.17921 5.86252 4.17921 7.81759C4.17921 9.77266 7.8689 11.6183 12.5407 11.6183Z" fill="#E5E5E5"/>
</svg>
