<svg width="12" height="12" viewBox="0 0 12 12" fill="none" xmlns="http://www.w3.org/2000/svg">
<g clip-path="url(#clip0_73_768)">
<path d="M10.1585 2.24599C9.3935 1.90099 8.5735 1.64599 7.716 1.50099C7.70836 1.49952 7.70045 1.50047 7.69338 1.50369C7.6863 1.50692 7.6804 1.51226 7.6765 1.51899C7.5715 1.70349 7.4545 1.94399 7.3725 2.13399C6.46304 1.99811 5.53845 1.99811 4.629 2.13399C4.53766 1.92342 4.43467 1.7181 4.3205 1.51899C4.31663 1.51218 4.31077 1.50671 4.30371 1.50332C4.29666 1.49992 4.28873 1.49876 4.281 1.49999C3.424 1.64499 2.604 1.89999 1.8385 2.24549C1.83191 2.24825 1.82633 2.25296 1.8225 2.25899C0.266496 4.54649 -0.160004 6.77749 0.0494962 8.98049C0.0500791 8.98588 0.0517539 8.9911 0.0544186 8.99583C0.0570833 9.00056 0.0606822 9.00469 0.0649962 9.00799C0.973192 9.6692 1.98616 10.1729 3.0615 10.498C3.06899 10.5003 3.07701 10.5003 3.0845 10.498C3.092 10.4956 3.09861 10.4911 3.1035 10.485C3.33489 10.1755 3.53994 9.84721 3.7165 9.50349C3.71895 9.49879 3.72036 9.49362 3.72064 9.48832C3.72092 9.48303 3.72005 9.47774 3.71811 9.47281C3.71617 9.46788 3.71319 9.46342 3.70937 9.45974C3.70556 9.45607 3.70099 9.45325 3.696 9.45149C3.373 9.32985 3.06004 9.18307 2.76 9.01249C2.7546 9.00941 2.75006 9.00504 2.74677 8.99977C2.74349 8.99451 2.74156 8.98851 2.74116 8.98231C2.74077 8.97612 2.74191 8.96992 2.7445 8.96428C2.74709 8.95864 2.75104 8.95373 2.756 8.94999C2.819 8.90349 2.882 8.85499 2.942 8.80649C2.9474 8.80213 2.9539 8.79935 2.96079 8.79847C2.96767 8.79758 2.97467 8.79863 2.981 8.80149C4.9445 9.68349 7.071 9.68349 9.0115 8.80149C9.01784 8.79846 9.02491 8.79728 9.03189 8.79807C9.03888 8.79887 9.0455 8.80161 9.05099 8.80599C9.111 8.85499 9.1735 8.90349 9.237 8.94999C9.242 8.95365 9.24601 8.95849 9.24868 8.96409C9.25136 8.96968 9.2526 8.97585 9.2523 8.98204C9.252 8.98824 9.25018 8.99426 9.24698 8.99957C9.24379 9.00488 9.23933 9.00932 9.234 9.01249C8.935 9.18449 8.624 9.32999 8.29749 9.45099C8.29248 9.45281 8.28791 9.45568 8.2841 9.4594C8.28028 9.46313 8.2773 9.46763 8.27536 9.4726C8.27342 9.47757 8.27256 9.48289 8.27284 9.48822C8.27313 9.49354 8.27454 9.49875 8.277 9.50349C8.457 9.84699 8.663 10.174 8.88949 10.4845C8.89421 10.4909 8.90077 10.4956 8.90828 10.4981C8.9158 10.5006 8.92391 10.5008 8.9315 10.4985C10.0087 10.1743 11.0233 9.67037 11.9325 9.00799C11.9369 9.00489 11.9407 9.00087 11.9434 8.99622C11.9462 8.99156 11.9479 8.98637 11.9485 8.98099C12.1985 6.43399 11.5295 4.22099 10.174 2.25999C10.1707 2.25361 10.1652 2.24865 10.1585 2.24599ZM4.01 7.63899C3.419 7.63899 2.9315 7.10449 2.9315 6.44899C2.9315 5.79299 3.4095 5.25899 4.01 5.25899C4.615 5.25899 5.098 5.79749 5.0885 6.44899C5.0885 7.10499 4.6105 7.63899 4.01 7.63899ZM7.9975 7.63899C7.406 7.63899 6.919 7.10449 6.919 6.44899C6.919 5.79299 7.3965 5.25899 7.9975 5.25899C8.6025 5.25899 9.0855 5.79749 9.076 6.44899C9.076 7.10499 8.603 7.63899 7.9975 7.63899Z" fill="#878B90"/>
</g>
<defs>
<clipPath id="clip0_73_768">
<rect width="12" height="12" fill="white"/>
</clipPath>
</defs>
</svg>
