<svg width="28" height="28" viewBox="0 0 28 28" fill="none" xmlns="http://www.w3.org/2000/svg">
<path d="M9.81512 10.5743C10.1997 10.5743 10.5119 10.8864 10.5119 11.2711V13.3614H12.3236C12.5084 13.3614 12.6856 13.4348 12.8163 13.5655C12.9469 13.6962 13.0204 13.8734 13.0204 14.0582C13.0204 14.243 12.9469 14.4203 12.8163 14.5509C12.6856 14.6816 12.5084 14.755 12.3236 14.755H10.5119V16.5667C10.5119 16.7515 10.4385 16.9287 10.3078 17.0594C10.1772 17.19 9.99992 17.2635 9.81512 17.2635C9.63032 17.2635 9.45309 17.19 9.32241 17.0594C9.19174 16.9287 9.11833 16.7515 9.11833 16.5667V14.755H7.02796C6.84316 14.755 6.66593 14.6816 6.53525 14.5509C6.40458 14.4203 6.33117 14.243 6.33117 14.0582C6.33117 13.8734 6.40458 13.6962 6.53525 13.5655C6.66593 13.4348 6.84316 13.3614 7.02796 13.3614H9.11833V11.2711C9.11833 10.8864 9.43049 10.5743 9.81512 10.5743ZM18.5947 15.8699C18.5947 16.2395 18.4479 16.5939 18.1865 16.8553C17.9252 17.1166 17.5707 17.2635 17.2011 17.2635C16.8315 17.2635 16.477 17.1166 16.2157 16.8553C15.9543 16.5939 15.8075 16.2395 15.8075 15.8699C15.8075 15.5003 15.9543 15.1458 16.2157 14.8845C16.477 14.6231 16.8315 14.4763 17.2011 14.4763C17.5707 14.4763 17.9252 14.6231 18.1865 14.8845C18.4479 15.1458 18.5947 15.5003 18.5947 15.8699ZM19.4308 13.3614C19.8004 13.3614 20.1549 13.2146 20.4162 12.9533C20.6776 12.6919 20.8244 12.3374 20.8244 11.9678C20.8244 11.5982 20.6776 11.2438 20.4162 10.9824C20.1549 10.7211 19.8004 10.5743 19.4308 10.5743C19.0612 10.5743 18.7068 10.7211 18.4454 10.9824C18.1841 11.2438 18.0372 11.5982 18.0372 11.9678C18.0372 12.3374 18.1841 12.6919 18.4454 12.9533C18.7068 13.2146 19.0612 13.3614 19.4308 13.3614ZM2.98657 13.9189C2.98657 9.60879 6.48056 6.11481 10.7906 6.11481H17.4798C21.7899 6.11481 25.2839 9.60879 25.2839 13.9189C25.2839 18.2289 21.7899 21.7229 17.4798 21.7229H10.7906C6.48056 21.7229 2.98657 18.2289 2.98657 13.9189ZM10.7906 7.50839C7.25037 7.50839 4.38015 10.3786 4.38015 13.9189C4.38015 17.4591 7.25037 20.3293 10.7906 20.3293H17.4798C21.0201 20.3293 23.8903 17.4591 23.8903 13.9189C23.8903 10.3786 21.0201 7.50839 17.4798 7.50839H10.7906Z" fill="#E5E5E5"/>
</svg>
