<svg width="26" height="26" viewBox="0 0 26 26" fill="none" xmlns="http://www.w3.org/2000/svg">
<path d="M7.89868 8.83783H14.1825M7.89868 13.027H18.3717H7.89868Z" stroke="white" stroke-width="1.21622" stroke-linecap="round" stroke-linejoin="round"/>
<path d="M3.70947 21.7091V5.69597C3.70947 5.14045 3.93015 4.60768 4.32297 4.21487C4.71578 3.82206 5.24855 3.60138 5.80407 3.60138H20.4662C21.0217 3.60138 21.5545 3.82206 21.9473 4.21487C22.3401 4.60768 22.5608 5.14045 22.5608 5.69597V16.1689C22.5608 16.7245 22.3401 17.2572 21.9473 17.65C21.5545 18.0429 21.0217 18.2635 20.4662 18.2635H8.90511C8.59117 18.2636 8.28125 18.3342 7.99827 18.4702C7.71529 18.6061 7.4665 18.8039 7.27028 19.049L4.82903 22.1008C4.74779 22.2027 4.63692 22.2767 4.51174 22.3128C4.38657 22.3488 4.25329 22.3451 4.13034 22.302C4.00739 22.259 3.90084 22.1789 3.82545 22.0726C3.75005 21.9664 3.70952 21.8394 3.70947 21.7091V21.7091Z" stroke="white" stroke-width="1.21622"/>
</svg>
