<svg width="40" height="40" viewBox="0 0 40 40" fill="none" xmlns="http://www.w3.org/2000/svg">
<path d="M15.5938 29.1406C14.7656 31.5937 12.7969 33.4062 9.90627 34.375C8.59944 34.8079 7.23567 35.0449 5.85939 35.0781C5.61075 35.0781 5.37229 34.9793 5.19648 34.8035C5.02066 34.6277 4.92189 34.3893 4.92189 34.1406C4.95511 32.7643 5.19206 31.4006 5.62501 30.0937C6.59376 27.2031 8.40627 25.2344 10.8594 24.4062C10.9763 24.3671 11.0999 24.3514 11.2229 24.36C11.3459 24.3687 11.466 24.4015 11.5764 24.4567C11.6867 24.5118 11.785 24.5882 11.8658 24.6815C11.9465 24.7747 12.0081 24.8829 12.0469 25C12.0883 25.1168 12.1056 25.2408 12.098 25.3645C12.0904 25.4882 12.0579 25.6091 12.0024 25.7199C11.947 25.8308 11.8698 25.9293 11.7754 26.0097C11.681 26.09 11.5714 26.1505 11.4531 26.1875C7.98439 27.3594 7.09376 31.25 6.87501 33.125C8.73439 32.8906 12.6563 32.0156 13.8125 28.5469C13.8495 28.4286 13.91 28.319 13.9903 28.2246C14.0707 28.1302 14.1692 28.053 14.2801 27.9976C14.3909 27.9422 14.5118 27.9096 14.6355 27.902C14.7592 27.8944 14.8832 27.9117 15 27.9531C15.1171 27.992 15.2253 28.0535 15.3185 28.1343C15.4118 28.215 15.4882 28.3133 15.5433 28.4237C15.5985 28.534 15.6313 28.6541 15.64 28.7771C15.6486 28.9001 15.6329 29.0237 15.5938 29.1406ZM31.2656 17.125L29.7813 18.625V28.3281C29.7763 28.9073 29.5466 29.4619 29.1406 29.875L24.0781 34.9219C23.8766 35.1271 23.6357 35.2896 23.3699 35.3997C23.1042 35.5098 22.8189 35.5651 22.5313 35.5625C22.0253 35.5611 21.5355 35.3845 21.1452 35.0625C20.7549 34.7406 20.4882 34.2933 20.3906 33.7969L19.1406 27.5312L12.4688 20.8594L6.20314 19.6094C5.81236 19.5342 5.44975 19.353 5.15491 19.0857C4.86007 18.8184 4.64434 18.4753 4.53126 18.0937C4.41477 17.7164 4.40416 17.3142 4.5006 16.9312C4.59704 16.5482 4.79682 16.1991 5.07814 15.9219L10.125 10.8594C10.5381 10.4534 11.0927 10.2237 11.6719 10.2187H21.375L22.875 8.73437C27.2344 4.35937 31.7031 4.48437 33.4219 4.74999C33.8833 4.81619 34.3108 5.0301 34.6403 5.35968C34.9699 5.68926 35.1838 6.11675 35.25 6.57812C35.5156 8.29686 35.6406 12.7656 31.2656 17.125ZM6.56251 17.7656L12.625 18.9844L19.5 12.0937H11.6719C11.5895 12.0949 11.5108 12.1286 11.4531 12.1875L6.40626 17.25C6.3661 17.2901 6.3376 17.3403 6.32384 17.3954C6.31007 17.4505 6.31156 17.5082 6.32814 17.5625C6.34299 17.6156 6.37313 17.6632 6.4148 17.6993C6.45647 17.7354 6.50784 17.7585 6.56251 17.7656ZM27.9063 20.5L21.0156 27.375L22.2344 33.4375C22.2415 33.4922 22.2646 33.5435 22.3007 33.5852C22.3368 33.6269 22.3844 33.657 22.4375 33.6719C22.4918 33.6884 22.5496 33.6899 22.6046 33.6762C22.6597 33.6624 22.7099 33.6339 22.75 33.5937L27.8125 28.5469C27.8714 28.4892 27.9051 28.4105 27.9063 28.3281V20.5ZM29.9375 15.7969C31.2031 14.5469 34.0469 11.1719 33.4063 6.85937C33.3945 6.79322 33.3627 6.73228 33.3152 6.68478C33.2677 6.63728 33.2068 6.6055 33.1406 6.59374C28.8281 5.95312 25.4531 8.79687 24.2031 10.0625L22.4375 11.8281L14.25 20L20 25.75L28.1719 17.5625L29.9375 15.7969Z" fill="#BC1F6F"/>
</svg>
